<svg xmlns="http://www.w3.org/2000/svg" xmlns:xlink="http://www.w3.org/1999/xlink" preserveAspectRatio="xMidYMid" width="20" height="20" viewBox="0 0 20 20">
  <defs>
    <style>

      .cls-2 {
        fill: #3e91df;
      }
    </style>
  </defs>
  <path d="M10.001,-0.001 C4.479,-0.001 -0.001,4.473 -0.001,9.995 C-0.001,15.522 4.479,20.001 10.001,20.001 C15.525,20.001 20.001,15.522 20.001,9.995 C20.001,4.473 15.525,-0.001 10.001,-0.001 ZM10.713,15.559 C10.481,15.767 10.212,15.870 9.907,15.870 C9.591,15.870 9.316,15.768 9.081,15.564 C8.846,15.360 8.728,15.074 8.728,14.707 C8.728,14.381 8.842,14.107 9.069,13.885 C9.297,13.663 9.576,13.552 9.907,13.552 C10.232,13.552 10.507,13.663 10.729,13.885 C10.951,14.107 11.062,14.381 11.062,14.707 C11.062,15.069 10.946,15.353 10.713,15.559 ZM13.610,8.379 C13.431,8.710 13.219,8.996 12.973,9.236 C12.728,9.477 12.287,9.881 11.651,10.450 C11.476,10.610 11.334,10.751 11.229,10.872 C11.123,10.994 11.044,11.105 10.992,11.205 C10.940,11.307 10.901,11.408 10.872,11.508 C10.844,11.609 10.801,11.786 10.744,12.040 C10.646,12.577 10.338,12.846 9.821,12.846 C9.553,12.846 9.327,12.758 9.142,12.583 C8.959,12.406 8.868,12.146 8.868,11.800 C8.868,11.365 8.935,10.989 9.069,10.671 C9.203,10.353 9.382,10.074 9.604,9.833 C9.827,9.593 10.126,9.307 10.504,8.977 C10.835,8.687 11.074,8.469 11.221,8.322 C11.369,8.174 11.493,8.010 11.593,7.829 C11.694,7.648 11.744,7.452 11.744,7.240 C11.744,6.826 11.591,6.477 11.283,6.193 C10.975,5.909 10.579,5.767 10.092,5.767 C9.524,5.767 9.105,5.910 8.836,6.197 C8.567,6.484 8.340,6.906 8.154,7.465 C7.978,8.049 7.644,8.341 7.153,8.341 C6.864,8.341 6.620,8.239 6.420,8.035 C6.222,7.831 6.122,7.610 6.122,7.372 C6.122,6.881 6.280,6.383 6.595,5.879 C6.911,5.375 7.371,4.958 7.976,4.627 C8.580,4.296 9.286,4.130 10.092,4.130 C10.842,4.130 11.504,4.269 12.077,4.546 C12.651,4.822 13.095,5.198 13.407,5.674 C13.720,6.150 13.877,6.666 13.877,7.225 C13.877,7.663 13.788,8.049 13.610,8.379 Z" id="path-1" class="cls-2" fill-rule="evenodd"/>
</svg>
